<?xml version="1.0" encoding="utf-8"?>
<!-- Generator: Adobe Illustrator 20.1.0, SVG Export Plug-In . SVG Version: 6.00 Build 0)  -->
<svg version="1.1" id="Layer_1" xmlns="http://www.w3.org/2000/svg" xmlns:xlink="http://www.w3.org/1999/xlink" x="0px" y="0px"
	 viewBox="0 0 100 100" style="enable-background:new 0 0 100 100;" xml:space="preserve">
<g>
	<g id="icons_art_boards">
	</g>
	<g id="titles">
		<path d="M98.4,61.3c-4.5,0-9.1,0-14.1,0c2.8,4.7,4.1,9.2-1,12.8c-2.5,1.8-6.5,1.3-8.8-0.7c-3.1-2.8-3.2-5.6-0.2-12
			c-4.6,0-9.1,0-13.7,0c0-4.8,0-9.3,0-13.6c2.1,0.7,4.4,2.2,6.6,2c2.1-0.2,4.4-1.7,5.9-3.3c2.4-2.6,1.9-6.5-0.5-9.2
			c-3-3.3-6-3.4-12.1,0c0-4.8,0-9.4,0-14c12.7,0,25.3,0,38,0C98.4,36,98.4,48.7,98.4,61.3z"/>
		<path d="M60.4,99.3c0-4.5,0-9.1,0-14.1c-4.8,2.8-9.4,4.2-13-1.2c-1.7-2.6-1.1-6.4,1-8.8c2.8-3,5.6-3,11.8,0c0-3.8,0-7.5,0-11.3
			c3.3,0,6.4,0,9.7,0c-1.2,4.3-0.8,8.4,2.8,11.2c1.9,1.5,4.6,2.6,6.9,2.7c6.6,0.1,10-5.3,9.2-14c3.2,0,6.3,0,9.5,0
			c0,11.9,0,23.7,0,35.6C85.7,99.3,73.1,99.3,60.4,99.3z"/>
		<path d="M30,0.7c3,3.4,6.1,6.8,9.4,10.5c1.7-5.3,4.2-9.4,10.5-7.7c3,0.8,5.1,4,5,7.2c-0.1,4.1-2.1,6-8.8,7.9
			c2.5,2.8,5,5.6,7.5,8.5c-2.5,2.2-4.7,4.2-7.2,6.4c-2-4-5-6.8-9.6-6.5c-2.4,0.2-5.2,1.1-7,2.6c-5,4.4-3.9,10.6,2.5,16.6
			c-2.4,2.1-4.7,4.2-7.1,6.3C17.4,43.7,9.5,34.8,1.6,26C11.1,17.5,20.5,9.1,30,0.7z"/>
		<path d="M22.4,61.6c1.1-0.1,10.7-0.2,13.8-0.2c-3-7.3-2.7-10,0.9-12.6c2.6-1.9,6.6-1.6,9.1,0.5c3.2,2.8,3.4,5.9,0.3,12
			c3.8,0,7.5,0,11.3,0c0,3.4,0,6.5,0,9.8c-5.2-1.6-9.5-0.3-12.5,4.3c-2.1,3.2-2.2,6.8-0.1,10.1c2.9,4.7,7.3,6,12.8,4.3
			c0,3.5,0,6.6,0,9.8c-11.8,0-23.6,0-35.6,0C22.4,87.5,22.4,73.4,22.4,61.6z"/>
	</g>
	<g id="Ebene_3">
	</g>
</g>
</svg>
